<?xml version="1.0" encoding="UTF-8"?>
<svg id="Capa_1" xmlns="http://www.w3.org/2000/svg" version="1.1" viewBox="0 0 841.9 595.3">
  <!-- Generator: Adobe Illustrator 29.2.1, SVG Export Plug-In . SVG Version: 2.1.0 Build 116)  -->
  <defs>
    <style>
      .st0 {
        fill: #0f1b4d;
      }

      .st1 {
        fill: #e50d46;
      }

      .st2 {
        fill: #f9ccd9;
      }

      .st3 {
        fill: #e8386c;
      }

      .st4 {
        fill: #f298b3;
      }

      .st5 {
        fill: #f5b0c5;
      }

      .st6 {
        fill: #ed698d;
      }
    </style>
  </defs>
  <polygon class="st4" points="139.5 341.5 184.2 385.5 184.2 341.5 139.5 341.5"/>
  <polygon class="st6" points="228.8 341.5 228.8 297.4 273.4 297.4 228.8 341.5"/>
  <polygon class="st3" points="273.4 341.5 228.8 341.5 273.4 297.4 273.4 341.5"/>
  <polygon class="st6" points="184.2 385.5 206.5 363.5 184.2 341.5 184.2 385.5"/>
  <polygon class="st3" points="184.2 385.5 228.8 385.5 228.8 341.5 184.2 385.5"/>
  <polygon class="st1" points="444.9 279.8 444.9 297.5 427.1 297.5 444.9 279.8"/>
  <polygon class="st2" points="139.5 297.4 139.5 341.5 184.2 297.4 139.5 297.4"/>
  <polygon class="st5" points="139.5 341.5 184.2 341.5 184.2 297.4 139.5 341.5"/>
  <polygon class="st5" points="273.4 253.4 273.4 297.4 228.8 253.4 273.4 253.4"/>
  <polygon class="st4" points="273.4 297.4 228.8 297.4 228.8 253.4 273.4 297.4"/>
  <polygon class="st6" points="228.8 253.4 184.2 253.4 228.8 297.4 228.8 253.4"/>
  <polygon class="st1" points="184.2 253.4 184.2 297.4 206.5 275.4 184.2 253.4"/>
  <polygon class="st1" points="228.8 341.5 228.8 385.5 273.4 341.5 228.8 341.5"/>
  <polygon class="st2" points="228.8 209.4 228.8 253.4 273.4 253.4 228.8 209.4"/>
  <g>
    <path class="st0" d="M539.8,280.3h-55.2l-17.4,17.2h72.6c12.3,0,22.3,9.9,22.3,22s-10,22-22.3,22h-55.2v-32.4l-17.4,17.1v32.4h72.6c21.9,0,39.7-17.6,39.7-39.2s-17.8-39.2-39.7-39.2"/>
    <path class="st0" d="M368.3,280.3h-55.2l-17.4,17.2h72.6c12.3,0,22.3,9.9,22.3,22s-10,22-22.3,22h-55.2v-32.4l-17.4,17.1v32.4h72.6c21.9,0,39.7-17.6,39.7-39.2s-17.8-39.2-39.7-39.2"/>
  </g>
  <polygon class="st0" points="444.9 358.6 427.1 358.6 427.1 309.1 444.9 309.1 444.9 358.6"/>
  <polygon class="st0" points="630 280.3 630.1 280.5 630 280.3 579.5 358.6 600.6 358.6 640.1 296 680.5 358.6 701.7 358.6 651.1 280.3 630 280.3"/>
</svg>