<?xml version="1.0" encoding="UTF-8"?>
<svg id="Capa_1" xmlns="http://www.w3.org/2000/svg" version="1.1" viewBox="0 0 272.7 272.7">
  <!-- Generator: Adobe Illustrator 29.2.1, SVG Export Plug-In . SVG Version: 2.1.0 Build 116)  -->
  <defs>
    <style>
      .st0 {
        fill: #e50d46;
      }

      .st1 {
        fill: #f9ccd9;
      }

      .st2 {
        fill: #e8386c;
      }

      .st3 {
        fill: #f298b3;
      }

      .st4 {
        fill: #f5b0c5;
      }

      .st5 {
        fill: #ed698d;
      }
    </style>
  </defs>
  <polygon class="st3" points="69.4 180.4 114 224.4 114 180.4 69.4 180.4"/>
  <polygon class="st5" points="158.7 180.4 158.7 136.3 203.3 136.3 158.7 180.4"/>
  <polygon class="st2" points="203.3 180.4 158.7 180.4 203.3 136.3 203.3 180.4"/>
  <polygon class="st5" points="114 224.4 136.3 202.4 114 180.4 114 224.4"/>
  <polygon class="st2" points="114 224.4 158.7 224.4 158.7 180.4 114 224.4"/>
  <polygon class="st1" points="69.4 136.3 69.4 180.4 114 136.3 69.4 136.3"/>
  <polygon class="st4" points="69.4 180.4 114 180.4 114 136.3 69.4 180.4"/>
  <polygon class="st4" points="203.3 92.3 203.3 136.3 158.7 92.3 203.3 92.3"/>
  <polygon class="st3" points="203.3 136.3 158.7 136.3 158.7 92.3 203.3 136.3"/>
  <polygon class="st5" points="158.7 92.3 114 92.3 158.7 136.3 158.7 92.3"/>
  <polygon class="st0" points="114 92.3 114 136.3 136.3 114.3 114 92.3"/>
  <polygon class="st0" points="158.7 180.4 158.7 224.4 203.3 180.4 158.7 180.4"/>
  <polygon class="st1" points="158.7 48.3 158.7 92.3 203.3 92.3 158.7 48.3"/>
</svg>